<svg width="440" height="93" viewBox="0 0 440 93" fill="none" xmlns="http://www.w3.org/2000/svg">
<path d="M67.6923 7.23077C67.6923 6.55103 67.1413 6 66.4615 6L50.4615 6C49.7818 6 49.2308 6.55104 49.2308 7.23077L49.2308 23.2308C49.2308 23.9105 49.7818 24.4615 50.4615 24.4615H54.1538C54.8336 24.4615 55.3846 23.9105 55.3846 23.2308V13.3846C55.3846 12.7049 55.9356 12.1538 56.6154 12.1538L66.4615 12.1538C67.1413 12.1538 67.6923 11.6028 67.6923 10.9231V7.23077Z" fill="#1D2228"/>
<path d="M76.1478 67.2911C77.109 68.2524 77.109 69.8109 76.1478 70.7722L70.926 75.9939C69.9648 76.9552 68.4062 76.9552 67.4449 75.9939L53.4329 61.9819C51.8822 60.4312 49.2308 61.5295 49.2308 63.7225V83.5385C49.2308 84.8979 48.1287 86 46.7692 86H39.3846C38.0251 86 36.9231 84.8979 36.9231 83.5385V63.7223C36.9231 61.5293 34.2716 60.4311 32.721 61.9818L18.7089 75.9938C17.7476 76.9551 16.1891 76.9551 15.2278 75.9938L10.0061 70.7721C9.04478 69.8108 9.04478 68.2522 10.0061 67.291L24.018 53.279C25.5687 51.7283 24.4704 49.0769 22.2774 49.0769H2.46154C1.10207 49.0769 0 47.9748 0 46.6154V39.2308C0 37.8713 1.10207 36.7692 2.46154 36.7692L22.2775 36.7692C24.4705 36.7692 25.5688 34.1178 24.0181 32.5671L10.0061 18.5551C9.04479 17.5938 9.04479 16.0353 10.0061 15.074L15.2278 9.85225C16.1891 8.89096 17.7476 8.89097 18.7089 9.85226L76.1478 67.2911Z" fill="#1D2228"/>
<path d="M62.7692 36.7692C62.0895 36.7692 61.5385 36.2182 61.5385 35.5385V31.8462C61.5385 31.1664 62.0895 30.6154 62.7692 30.6154L72.6154 30.6154C73.2951 30.6154 73.8462 30.0644 73.8462 29.3846V19.5385C73.8462 18.8587 74.3972 18.3077 75.0769 18.3077H78.7692C79.449 18.3077 80 18.8587 80 19.5385V35.5385C80 36.2182 79.449 36.7692 78.7692 36.7692H62.7692Z" fill="#1D2228"/>
<path d="M106.598 54.7042C107.997 67.3747 119.007 76.2877 133.25 76.2877C147.144 76.2877 156.144 68.0737 156.144 56.8014C156.144 48.4127 150.202 42.8202 138.318 40.1987L128.357 37.9268C120.58 36.1791 117.259 33.2081 117.259 27.9651C117.259 21.5862 122.589 16.7802 130.978 16.7802C138.843 16.7802 144.697 21.9357 145.571 29.4506L152.474 27.703C150.727 17.3918 142.163 10.3139 130.891 10.3139C118.308 10.3139 110.006 18.0909 110.006 29.1885C110.006 37.4025 115.162 42.3833 126.085 44.9174L136.046 47.1893C145.047 49.2865 148.892 52.5196 148.892 57.9374C148.892 64.6658 142.95 69.8214 133.25 69.8214C122.502 69.8214 114.375 63.0055 113.764 53.3935L106.598 54.7042Z" fill="#1D2228"/>
<path fill-rule="evenodd" clip-rule="evenodd" d="M200.047 92.4535H206.776V29.9749H200.921L200.309 37.5772H200.222C196.465 31.7226 190.348 28.2273 183.008 28.2273C170.075 28.2273 160.55 38.2763 160.55 52.0827C160.55 65.8018 169.988 75.8508 182.92 75.8508C190.26 75.8508 196.202 72.4429 199.96 66.763H200.047V92.4535ZM200.309 52.0827C200.309 62.0443 193.319 69.734 183.794 69.734C174.182 69.734 167.191 62.0443 167.191 52.0827C167.191 41.859 174.269 34.3441 183.794 34.3441C193.319 34.3441 200.309 42.0337 200.309 52.0827Z" fill="#1D2228"/>
<path d="M215.11 58.4617C215.11 69.3845 221.314 75.8508 231.45 75.8508C239.14 75.8508 244.645 72.8798 248.403 67.5494H248.49L249.102 74.1031H255.131V29.9749H248.49V54.879C248.49 63.8794 242.111 70.0835 233.285 70.0835C226.295 70.0835 221.838 65.2775 221.838 57.7626V29.9749H215.11V58.4617Z" fill="#1D2228"/>
<path d="M262.972 16.518C262.972 19.489 264.895 21.4114 267.866 21.4114C270.749 21.4114 272.846 19.489 272.846 16.518C272.846 13.6344 270.749 11.712 267.866 11.712C264.895 11.712 262.972 13.6344 262.972 16.518Z" fill="#1D2228"/>
<path d="M264.458 74.1031H271.099V29.9749H264.458V74.1031Z" fill="#1D2228"/>
<path fill-rule="evenodd" clip-rule="evenodd" d="M278.995 52.0827C278.995 65.8018 288.519 75.8508 301.452 75.8508C308.792 75.8508 314.909 72.3555 318.666 66.5008H318.754L319.365 74.1031H325.22V9.87695H318.492V37.4025H318.404C314.647 31.6352 308.705 28.2273 301.365 28.2273C288.432 28.2273 278.995 38.2763 278.995 52.0827ZM318.754 52.0827C318.754 62.0443 311.763 69.8214 302.238 69.8214C292.714 69.8214 285.636 62.2191 285.636 52.0827C285.636 42.0337 292.626 34.3441 302.238 34.3441C311.763 34.3441 318.754 42.0337 318.754 52.0827Z" fill="#1D2228"/>
<path fill-rule="evenodd" clip-rule="evenodd" d="M343.124 74.1034H356.319L360.076 61.2581H381.747L385.417 74.1034H398.787L379.038 11.9744H362.873L343.124 74.1034ZM362.261 51.6461L370.912 22.8098H371.087L379.563 51.6461H362.261Z" fill="#1D2228"/>
<path d="M404.097 74.1034H417.117V11.9744H404.097V74.1034Z" fill="#1D2228"/>
<path d="M428.784 12V13.605H425.922V21.3624H424.138V13.605H421.275V12H428.784Z" fill="#1D2228"/>
<path d="M432.731 12L434.772 19.5658H434.907L436.947 12H440V21.3584H438.267V13.8206H438.132L436.092 21.3624H433.579L431.538 13.8206H431.403V21.3624H429.674V12H432.731Z" fill="#1D2228"/>
</svg>
